<svg xmlns="http://www.w3.org/2000/svg" viewBox="0 0 120 120"><rect width="120" height="120" rx="26.8" fill="#0C1622"></rect><g transform="translate(60,60) scale(1.24)"><g transform="rotate(-8)"><circle r="40" fill="none" stroke="#FFFFFF" stroke-width="3.5"></circle><circle r="25.5" fill="none" stroke="#FFFFFF" stroke-width="1.8"></circle><defs><path id="at" d="M-29.5,0 A29.5,29.5 0 0 1 29.5,0"></path><path id="ab" d="M-36.5,0 A36.5,36.5 0 0 0 36.5,0"></path></defs><text font-family="'IBM Plex Mono',monospace" font-weight="500" fill="#FFFFFF" font-size="8.5" letter-spacing="2.6"><textPath href="#at" startOffset="50%" text-anchor="middle">EXALTO</textPath></text><text font-family="'IBM Plex Mono',monospace" font-weight="500" fill="#FFFFFF" font-size="8.5" letter-spacing="2.6"><textPath href="#ab" startOffset="50%" text-anchor="middle">VERIFIED</textPath></text><circle cx="-32.8" cy="0" r="1.7" fill="#FFFFFF"></circle><circle cx="32.8" cy="0" r="1.7" fill="#FFFFFF"></circle><g fill="#FFFFFF" transform="scale(0.66)"><g transform="translate(-13,-1) rotate(180)"><circle cy="-7" r="8.2"></circle><path d="M8,-4.5 C8,4.5 3,12 -6.8,17.5 C-0.6,9.5 1.9,3 1.4,-4.5 Z"></path></g><g transform="translate(13,-1) rotate(180)"><circle cy="-7" r="8.2"></circle><path d="M8,-4.5 C8,4.5 3,12 -6.8,17.5 C-0.6,9.5 1.9,3 1.4,-4.5 Z"></path></g></g></g></g></svg>